<?xml version="1.0" standalone="no"?>
<svg xmlns:xlink="http://www.w3.org/1999/xlink" id="wave" style="transform:rotate(0deg); transition: 0.3s" viewBox="0 0 1440 160" version="1.1" xmlns="http://www.w3.org/2000/svg"><defs><linearGradient id="sw-gradient-0" x1="0" x2="0" y1="1" y2="0"><stop stop-color="rgba(252, 207, 0, 1)" offset="0%"/><stop stop-color="rgba(252, 207, 0, 1)" offset="100%"/></linearGradient></defs><path style="transform:translate(0, 0px); opacity:1" fill="url(#sw-gradient-0)" d="M0,112L34.3,96C68.6,80,137,48,206,40C274.3,32,343,48,411,64C480,80,549,96,617,106.7C685.7,117,754,123,823,104C891.4,85,960,43,1029,29.3C1097.1,16,1166,32,1234,48C1302.9,64,1371,80,1440,82.7C1508.6,85,1577,75,1646,64C1714.3,53,1783,43,1851,53.3C1920,64,1989,96,2057,104C2125.7,112,2194,96,2263,98.7C2331.4,101,2400,123,2469,128C2537.1,133,2606,123,2674,120C2742.9,117,2811,123,2880,117.3C2948.6,112,3017,96,3086,80C3154.3,64,3223,48,3291,58.7C3360,69,3429,107,3497,122.7C3565.7,139,3634,133,3703,133.3C3771.4,133,3840,139,3909,141.3C3977.1,144,4046,144,4114,122.7C4182.9,101,4251,59,4320,37.3C4388.6,16,4457,16,4526,29.3C4594.3,43,4663,69,4731,77.3C4800,85,4869,75,4903,69.3L4937.1,64L4937.1,160L4902.9,160C4868.6,160,4800,160,4731,160C4662.9,160,4594,160,4526,160C4457.1,160,4389,160,4320,160C4251.4,160,4183,160,4114,160C4045.7,160,3977,160,3909,160C3840,160,3771,160,3703,160C3634.3,160,3566,160,3497,160C3428.6,160,3360,160,3291,160C3222.9,160,3154,160,3086,160C3017.1,160,2949,160,2880,160C2811.4,160,2743,160,2674,160C2605.7,160,2537,160,2469,160C2400,160,2331,160,2263,160C2194.3,160,2126,160,2057,160C1988.6,160,1920,160,1851,160C1782.9,160,1714,160,1646,160C1577.1,160,1509,160,1440,160C1371.4,160,1303,160,1234,160C1165.7,160,1097,160,1029,160C960,160,891,160,823,160C754.3,160,686,160,617,160C548.6,160,480,160,411,160C342.9,160,274,160,206,160C137.1,160,69,160,34,160L0,160Z"/></svg>