<?xml version="1.0" encoding="UTF-8" standalone="no"?>
<!-- Created with Inkscape (http://www.inkscape.org/) -->

<svg
   width="548.21051"
   height="277.57138"
   viewBox="0 0 153.15162 77.54413"
   version="1.1"
   id="svg1"
   xml:space="preserve"
   inkscape:version="1.4-beta (62f545ba5e, 2024-04-22)"
   sodipodi:docname="acnogelblanco.svg"
   inkscape:export-filename="acnogelblanco1.svg"
   inkscape:export-xdpi="96"
   inkscape:export-ydpi="96"
   xmlns:inkscape="http://www.inkscape.org/namespaces/inkscape"
   xmlns:sodipodi="http://sodipodi.sourceforge.net/DTD/sodipodi-0.dtd"
   xmlns="http://www.w3.org/2000/svg"
   xmlns:svg="http://www.w3.org/2000/svg"><sodipodi:namedview
     id="namedview1"
     pagecolor="#ffffff"
     bordercolor="#000000"
     borderopacity="0"
     inkscape:showpageshadow="2"
     inkscape:pageopacity="0.0"
     inkscape:pagecheckerboard="true"
     inkscape:deskcolor="#d1d1d1"
     inkscape:document-units="mm"
     inkscape:zoom="0.6437866"
     inkscape:cx="305.22537"
     inkscape:cy="269.49924"
     inkscape:window-width="1366"
     inkscape:window-height="705"
     inkscape:window-x="-8"
     inkscape:window-y="760"
     inkscape:window-maximized="1"
     inkscape:current-layer="layer1"
     inkscape:export-bgcolor="#ffffff00" /><defs
     id="defs1" /><g
     inkscape:label="Capa 1"
     inkscape:groupmode="layer"
     id="layer1"
     transform="translate(-31.384381,-115.61575)"><path
       style="fill:#000000;fill-opacity:1"
       d="m 105.03534,193.01072 c -2.17917,-0.12965 -5.870109,-0.42134 -8.202087,-0.64821 -2.331979,-0.22688 -5.847305,-0.65257 -7.811836,-0.94599 -1.964532,-0.29342 -5.060156,-0.82828 -6.879167,-1.18858 -1.81901,-0.36031 -5.15276,-1.13814 -7.408333,-1.72851 -2.255573,-0.59038 -6.006041,-1.70848 -8.334375,-2.48466 -2.328333,-0.77618 -5.495369,-1.95113 -7.037858,-2.61099 -1.542488,-0.65986 -3.626082,-1.60443 -4.630208,-2.09903 -1.004126,-0.49461 -2.659121,-1.35826 -3.677767,-1.91923 -1.018645,-0.56097 -2.804583,-1.67426 -3.968749,-2.47398 -1.164167,-0.79972 -2.599203,-1.878 -3.18897,-2.39619 -0.589767,-0.51819 -1.562368,-1.35888 -2.161337,-1.8682 -0.598969,-0.50932 -1.128464,-1.09708 -1.176656,-1.30612 -0.06783,-0.29423 0.176697,-0.36361 1.082694,-0.30719 0.847704,0.0528 1.456583,0.30345 2.208788,0.90925 0.571159,0.45999 1.413736,1.14835 1.872393,1.52968 0.458656,0.38133 1.845952,1.34617 3.082879,2.14408 1.236927,0.79792 3.26099,1.99393 4.497917,2.65781 1.236927,0.66388 3.535868,1.75359 5.108758,2.42156 1.572889,0.66798 4.073202,1.63782 5.556249,2.1552 1.483048,0.51738 4.125201,1.34177 5.871451,1.83197 1.74625,0.4902 4.630872,1.19631 6.410273,1.56914 1.7794,0.37282 5.232213,0.96684 7.672916,1.32004 2.440704,0.35321 5.747331,0.77296 7.34806,0.93279 1.600729,0.15983 5.291666,0.40594 8.202083,0.54691 2.910422,0.14097 7.800742,0.25795 10.867392,0.25997 3.06664,0.002 7.76961,-0.11926 10.45104,-0.26949 2.68143,-0.15023 7.3161,-0.50694 10.29928,-0.7927 2.98318,-0.28576 6.61458,-0.64895 8.06979,-0.80708 1.45521,-0.15813 4.43177,-0.51905 6.61458,-0.80204 2.18282,-0.28299 5.69516,-0.87224 7.80521,-1.30944 2.11005,-0.4372 5.42953,-1.21176 7.37662,-1.72125 1.94709,-0.50949 5.34037,-1.59254 7.54063,-2.40678 2.20025,-0.81423 4.92055,-1.94141 6.04511,-2.50483 1.12455,-0.56342 2.19612,-1.02068 2.38125,-1.01614 0.18513,0.005 -0.13965,0.30762 -0.72173,0.67351 -0.58209,0.36589 -2.84427,1.55993 -5.02709,2.65343 -2.18281,1.09349 -5.57609,2.61952 -7.54062,3.39117 -1.96453,0.77165 -4.9411,1.82834 -6.61458,2.34819 -1.67349,0.51985 -4.41193,1.30758 -6.08542,1.75052 -1.67349,0.44293 -5.1263,1.21687 -7.67292,1.71985 -2.54661,0.50299 -6.48709,1.16285 -8.75662,1.46636 -2.26953,0.30351 -6.25812,0.72876 -8.86354,0.945 -2.60542,0.21624 -7.41603,0.44328 -10.69025,0.50454 -3.27422,0.0613 -7.73609,0.005 -9.91525,-0.12434 z M 141.93809,169.501 c -0.50933,-0.11463 -1.40067,-0.41182 -1.98077,-0.66043 -0.5801,-0.2486 -1.33958,-0.71422 -1.68774,-1.03469 -0.34817,-0.32048 -0.79628,-0.96582 -0.9958,-1.43409 -0.19953,-0.46826 -0.36278,-1.21832 -0.36278,-1.66678 0,-0.44846 0.16797,-1.1369 0.37326,-1.52985 0.20529,-0.39296 0.71282,-1.0371 1.12784,-1.43143 0.41539,-0.39467 1.37338,-0.87532 2.13114,-1.06924 l 1.37653,-0.35228 -0.93578,-0.50396 c -0.51468,-0.27717 -1.1654,-0.82642 -1.44605,-1.22055 -0.28065,-0.39414 -0.51027,-1.0911 -0.51027,-1.5488 0,-0.45771 0.17571,-1.17197 0.39046,-1.58726 0.21475,-0.41529 0.82751,-1.02518 1.36169,-1.35532 0.94538,-0.58428 0.95733,-0.61136 0.44916,-1.01773 -0.28714,-0.22962 -0.84977,-0.65561 -1.25029,-0.94665 -0.40053,-0.29104 -0.94006,-0.94588 -1.19896,-1.45521 -0.2589,-0.50932 -0.5528,-1.26692 -0.65311,-1.68355 -0.10031,-0.41664 -0.0523,-1.3843 0.10677,-2.15036 0.16657,-0.80235 0.63472,-1.84246 1.10428,-2.45341 0.44831,-0.58331 1.32874,-1.31708 1.9565,-1.6306 0.62776,-0.31352 1.79705,-0.70756 2.59843,-0.87565 1.21523,-0.2549 1.77773,-0.23061 3.38929,0.14633 1.22558,0.28666 3.02082,0.4507 4.9088,0.44855 1.63711,-0.002 2.98635,0.0859 2.99832,0.19505 0.012,0.10914 0.0744,0.51704 0.13872,0.90645 0.0643,0.38941 0.0176,0.76942 -0.1038,0.84446 -0.12141,0.075 -1.07681,0.16143 -2.12309,0.19198 -1.04629,0.0305 -1.90234,0.0787 -1.90234,0.10708 0,0.0283 0.20081,0.45407 0.44624,0.94604 0.24543,0.49198 0.4977,1.51504 0.56059,2.27346 0.087,1.04926 -0.0246,1.66599 -0.46685,2.57955 -0.31966,0.66034 -0.95888,1.51987 -1.42049,1.91009 -0.4616,0.39021 -1.37506,0.94937 -2.0299,1.24257 -0.7808,0.3496 -1.91921,0.56361 -3.3073,0.62173 -1.76296,0.0738 -2.19404,0.1816 -2.57968,0.64499 -0.25467,0.306 -0.46302,0.69901 -0.46302,0.87336 0,0.17435 0.15545,0.52959 0.34545,0.78943 0.24489,0.3349 0.91887,0.53881 2.3151,0.70041 1.08331,0.12539 2.78013,0.2332 3.77072,0.23959 0.99059,0.006 2.31567,0.1412 2.94463,0.29957 0.62896,0.15838 1.59003,0.65597 2.13571,1.10577 0.54568,0.44979 1.21228,1.30248 1.48133,1.89486 0.26905,0.59237 0.49113,1.49376 0.49352,2.00309 0.002,0.50932 -0.12751,1.40229 -0.28865,1.98437 -0.18222,0.65823 -0.75681,1.51903 -1.51988,2.27694 -0.79907,0.79368 -1.78046,1.42788 -2.81439,1.81875 -1.25432,0.47418 -2.25386,0.61815 -4.7625,0.68596 -1.74625,0.0472 -3.59172,-0.008 -4.10104,-0.12259 z m 8.12635,-2.39629 c 0.64044,-0.36169 1.28787,-0.99416 1.52135,-1.48619 0.22356,-0.4711 0.40646,-1.33851 0.40646,-1.92758 0,-0.89919 -0.13796,-1.17486 -0.85989,-1.7182 -0.72649,-0.54677 -1.27957,-0.67636 -3.56497,-0.83526 -1.79489,-0.1248 -3.14195,-0.0833 -4.00345,0.12339 -0.7992,0.19172 -1.57925,0.60464 -2.02893,1.07401 -0.53171,0.55498 -0.76421,1.11279 -0.8542,2.04934 -0.10376,1.07983 -0.0232,1.40085 0.50067,1.99574 0.34337,0.38991 1.10056,0.88625 1.68265,1.10299 0.72908,0.27147 1.8403,0.37187 3.57187,0.32273 2.07437,-0.0589 2.70834,-0.18134 3.62844,-0.70097 z m -3.49897,-14.8294 c 0.44851,-0.17052 0.87962,-0.68519 1.22167,-1.45845 0.3263,-0.73766 0.5314,-1.78506 0.53595,-2.73698 0.004,-0.84812 -0.17359,-1.97515 -0.39477,-2.50451 -0.22118,-0.52935 -0.79626,-1.20945 -1.27796,-1.51132 -0.62619,-0.39242 -1.16157,-0.51397 -1.87838,-0.42645 -0.55141,0.0673 -1.18434,0.27326 -1.40651,0.45764 -0.22217,0.18439 -0.59691,0.7011 -0.83276,1.14827 -0.27293,0.51747 -0.43258,1.48628 -0.43918,2.6651 -0.008,1.41724 0.12746,2.11276 0.57669,2.96237 0.32288,0.61066 0.79626,1.23212 1.05194,1.38102 0.25569,0.1489 0.84409,0.27435 1.30756,0.27877 0.46346,0.004 1.15456,-0.11053 1.53575,-0.25546 z M 31.390396,169.02068 c 0.05404,-0.2806 0.463474,-0.5297 1.081843,-0.65818 0.547194,-0.11369 1.494554,-0.46161 2.105244,-0.77316 0.61069,-0.31155 1.729295,-1.20042 2.485788,-1.97527 0.869484,-0.89058 1.569221,-1.92434 1.902229,-2.81026 0.289733,-0.7708 1.673849,-4.31848 3.075814,-7.88374 1.401964,-3.56526 3.011252,-7.67292 3.576195,-9.12813 0.564942,-1.45521 1.637907,-4.25317 2.384366,-6.2177 0.746458,-1.96454 1.599347,-4.16719 1.895308,-4.8948 0.295962,-0.7276 0.661005,-1.62057 0.811209,-1.98437 0.150204,-0.3638 1.191045,-2.98318 2.31298,-5.82083 l 2.039883,-5.15938 0.918816,-0.0789 c 0.883522,-0.0759 0.940602,-0.025 1.485924,1.32292 0.311909,0.771 1.102945,2.77224 1.757858,4.4472 0.654913,1.67496 2.571329,6.61605 4.258702,10.98021 1.687373,4.36415 4.568796,11.86388 6.403162,16.66607 1.834366,4.80219 3.693777,9.28196 4.132024,9.95504 0.438247,0.67309 1.275954,1.53448 1.861571,1.9142 0.585617,0.37972 1.609271,0.88127 2.274786,1.11455 0.665515,0.23329 1.368049,0.50299 1.561188,0.59935 0.193138,0.0964 0.342032,0.29425 0.330876,0.43978 -0.01299,0.16937 -3.280529,0.28966 -9.080783,0.33427 -4.983275,0.0383 -9.223469,0.007 -9.422654,-0.0693 -0.289852,-0.11123 -0.296914,-0.21758 -0.03538,-0.53272 0.179728,-0.21656 0.631811,-0.39374 1.004628,-0.39374 0.372818,0 1.360363,-0.19151 2.194546,-0.42557 0.940962,-0.26402 1.796525,-0.71764 2.253873,-1.19501 0.714342,-0.74561 0.726982,-0.80824 0.408046,-2.02183 -0.181023,-0.68881 -1.16814,-3.51457 -2.193595,-6.27947 -1.025455,-2.76489 -2.036673,-5.20567 -2.247152,-5.42396 -0.319603,-0.33145 -1.678762,-0.41042 -8.245003,-0.47906 -4.324274,-0.0452 -8.25017,-0.01 -8.724214,0.0785 -0.474044,0.0884 -1.035467,0.4256 -1.247606,0.74937 -0.21214,0.32376 -0.871134,1.95531 -1.464432,3.62565 -0.593298,1.67035 -1.311797,3.9498 -1.596665,5.06545 -0.284867,1.11565 -0.51794,2.32691 -0.51794,2.69168 0,0.36477 0.296059,1.01507 0.657908,1.4451 0.36185,0.43003 1.284584,1.02759 2.050521,1.32791 0.765937,0.30032 2.077222,0.68042 2.913966,0.84468 1.003065,0.19691 1.521355,0.42746 1.521355,0.67676 0,0.31991 -1.306394,0.37812 -8.486067,0.37812 -7.856826,0 -8.47962,-0.0335 -8.399122,-0.45147 z m 30.288079,-18.74339 c 0.07911,-0.20615 -0.03745,-0.88297 -0.259022,-1.50404 -0.22157,-0.62107 -1.589172,-4.16532 -3.039114,-7.8761 -1.449943,-3.71078 -2.944721,-7.44012 -3.321729,-8.28742 -0.565966,-1.27198 -0.785602,-1.52568 -1.25983,-1.45521 -0.315899,0.0469 -0.666403,0.26393 -0.778898,0.48222 -0.112495,0.21828 -0.441465,1.05171 -0.731044,1.85208 -0.28958,0.80036 -1.088839,2.94349 -1.776132,4.7625 -0.687293,1.81901 -1.404518,3.66448 -1.593833,4.10104 -0.189315,0.43656 -0.826833,2.05185 -1.416707,3.58953 -0.589873,1.53768 -1.143679,3.15169 -1.23068,3.58669 -0.104517,0.52258 -0.0309,0.89655 0.216973,1.10227 0.261235,0.21681 2.45753,0.33282 7.232703,0.38206 3.771651,0.0389 7.072632,-0.0264 7.335513,-0.14505 0.262882,-0.11866 0.542692,-0.38441 0.6218,-0.59057 z m -27.494396,12.24939 c -0.547048,-1.34598 -1.170058,-3.28067 -1.384469,-4.29932 -0.21441,-1.01865 -0.391904,-2.77984 -0.394431,-3.91376 -0.0025,-1.13392 0.183493,-2.97939 0.413377,-4.10104 0.243068,-1.18597 0.956852,-3.15993 1.705742,-4.7172 0.708273,-1.47281 1.905669,-3.49687 2.660879,-4.49792 0.75521,-1.00104 1.922392,-2.39563 2.593737,-3.09907 0.671346,-0.70344 2.113598,-2.02098 3.205004,-2.92785 1.091406,-0.90687 2.976134,-2.32562 4.188283,-3.15278 1.212149,-0.82716 2.373008,-1.50392 2.579687,-1.50392 0.206679,0 0.371958,0.0893 0.367288,0.19844 -0.0047,0.10914 -0.332093,0.85328 -0.727604,1.65364 -0.601949,1.21812 -1.038713,1.66513 -2.680727,2.74366 -1.078889,0.70864 -3.171362,2.49458 -4.649942,3.96875 -1.47858,1.47416 -3.16898,3.39467 -3.756445,4.2678 -0.587465,0.87312 -1.370481,2.18538 -1.740036,2.91613 -0.369555,0.73074 -0.92696,2.09996 -1.238677,3.04271 -0.329478,0.99645 -0.633072,2.77731 -0.725151,4.25366 -0.101082,1.62071 -0.0352,3.2003 0.182097,4.36563 0.18727,1.00432 0.694866,2.75934 1.127992,3.90005 0.687618,1.81096 0.744197,2.15494 0.446076,2.71198 -0.187784,0.35088 -0.529666,0.63789 -0.759737,0.63781 -0.279467,-1.1e-4 -0.748448,-0.81244 -1.412943,-2.4474 z m 88.968591,-0.87193 c -0.8498,-0.23688 -2.05286,-0.8691 -2.89177,-1.51964 -0.81937,-0.63539 -1.80846,-1.7392 -2.30217,-2.56921 -0.47609,-0.80036 -1.00583,-2.06415 -1.17721,-2.80841 -0.1744,-0.75741 -0.2614,-2.40306 -0.19758,-3.73772 0.0964,-2.01574 0.24611,-2.65288 0.9682,-4.11966 0.52637,-1.06921 1.34207,-2.17332 2.12538,-2.87686 0.69914,-0.62795 1.8598,-1.35257 2.57925,-1.61028 0.71944,-0.25771 1.90382,-0.53912 2.63195,-0.62535 0.8488,-0.10053 1.93793,-6.5e-4 3.03506,0.27833 0.94115,0.23932 2.25172,0.80197 2.91237,1.25033 0.66066,0.44836 1.64466,1.41458 2.18667,2.14715 0.54202,0.73257 1.17964,1.99914 1.41694,2.8146 0.2373,0.81547 0.42288,2.32729 0.41241,3.3596 -0.0105,1.03232 -0.21416,2.5481 -0.45263,3.36841 -0.23847,0.8203 -0.43936,1.58302 -0.44642,1.69493 -0.007,0.11191 -0.38014,0.66722 -0.82906,1.23403 -0.44892,0.56681 -1.22464,1.42721 -1.72382,1.91201 -0.49918,0.4848 -1.56003,1.12555 -2.35745,1.42391 -0.79741,0.29835 -2.12148,0.59803 -2.94238,0.66596 -0.90705,0.0751 -2.06337,-0.0356 -2.94774,-0.28213 z m 4.04339,-1.80579 c 0.46827,-0.19953 1.11348,-0.6475 1.43379,-0.99548 0.32031,-0.34799 0.85609,-1.22654 1.19062,-1.95233 0.54596,-1.1845 0.60824,-1.71246 0.60824,-5.15608 0,-3.38661 -0.0678,-3.98323 -0.57817,-5.08812 -0.318,-0.68841 -0.86986,-1.54334 -1.22636,-1.89984 -0.3565,-0.3565 -1.13812,-0.78011 -1.73693,-0.94135 -0.8035,-0.21636 -1.38335,-0.21408 -2.21323,0.009 -0.67978,0.1825 -1.5093,0.69378 -2.09757,1.29286 -0.63806,0.64978 -1.1387,1.52864 -1.45408,2.55259 -0.32448,1.05347 -0.47904,2.37949 -0.47497,4.07515 0.004,1.82499 0.16398,3.02172 0.58264,4.36867 0.40099,1.2901 0.84204,2.10622 1.44806,2.6795 0.47929,0.4534 1.22863,0.94864 1.66519,1.10054 0.43657,0.1519 1.06547,0.28558 1.39756,0.29707 0.3321,0.0115 0.98694,-0.14236 1.45521,-0.34189 z m -46.068444,1.45869 c -0.867362,-0.30763 -1.866586,-0.94687 -2.591971,-1.65817 -0.649254,-0.63665 -1.473039,-1.75497 -1.830632,-2.48517 -0.357593,-0.7302 -0.791608,-2.29805 -0.964479,-3.48411 -0.240462,-1.64981 -0.241886,-2.54591 -0.0061,-3.814 0.169536,-0.91164 0.630391,-2.29423 1.024121,-3.07242 0.393731,-0.77819 1.293776,-1.95546 2.000102,-2.61614 0.706326,-0.66069 1.845873,-1.45408 2.532328,-1.7631 0.899382,-0.40488 1.802533,-0.56598 3.232475,-0.5766 1.660211,-0.0123 2.232959,0.10732 3.506081,0.73249 1.138026,0.55883 1.688396,1.03167 2.182812,1.87533 0.441618,0.75356 0.661107,1.52578 0.661107,2.32593 0,0.8112 -0.177007,1.42288 -0.54837,1.89499 -0.438844,0.5579 -0.773128,0.69714 -1.673671,0.69714 -0.851473,0 -1.273186,-0.15742 -1.733037,-0.64691 -0.563479,-0.59979 -0.594204,-0.79132 -0.421909,-2.62995 l 0.185827,-1.98306 -1.07942,-0.29065 c -0.774276,-0.20849 -1.377472,-0.2104 -2.133751,-0.007 -0.665734,0.17926 -1.31738,0.61357 -1.768029,1.17835 -0.392535,0.49195 -0.929644,1.44421 -1.193578,2.11613 -0.263933,0.67192 -0.555283,2.033 -0.647444,3.02462 -0.09584,1.03116 -0.03246,2.5848 0.148056,3.62944 0.173593,1.00457 0.608367,2.32848 0.966165,2.94201 0.357799,0.61353 1.069626,1.43516 1.581839,1.82585 0.619458,0.47248 1.369037,0.75239 2.238594,0.83595 1.045953,0.1005 1.58588,-0.0129 2.700825,-0.56746 0.829101,-0.41235 1.70879,-1.12238 2.171886,-1.75302 0.428098,-0.58298 0.904348,-1.05617 1.058334,-1.05154 0.153986,0.005 0.509195,0.18183 0.789353,0.39379 0.451375,0.3415 0.468973,0.46088 0.154544,1.04839 -0.195159,0.36466 -0.848146,1.17787 -1.451083,1.80713 -0.602937,0.62926 -1.684513,1.43175 -2.403502,1.78332 -0.954001,0.46648 -1.843482,0.65943 -3.291629,0.71402 -1.428693,0.0539 -2.379638,-0.0654 -3.395884,-0.42582 z m 82.374014,0.12148 c -0.58209,-0.18409 -1.41552,-0.52315 -1.85209,-0.75348 -0.43656,-0.23032 -1.17387,-0.81588 -1.63846,-1.30124 -0.46459,-0.48536 -1.20462,-1.65637 -1.64451,-2.60226 -0.58095,-1.24919 -0.84768,-2.30229 -0.97476,-3.8485 -0.10723,-1.30469 -0.0559,-2.68735 0.13251,-3.57187 0.1691,-0.79374 0.61296,-2.03848 0.98635,-2.76609 0.37339,-0.7276 1.11332,-1.77949 1.6443,-2.33752 0.53097,-0.55803 1.38213,-1.22855 1.89145,-1.49004 0.50932,-0.26148 1.60451,-0.62615 2.43375,-0.81038 1.22705,-0.2726 1.81237,-0.27029 3.14436,0.0124 0.91496,0.19417 2.17178,0.70724 2.85021,1.16353 0.66745,0.44892 1.54501,1.35497 1.95013,2.01344 0.50722,0.82442 0.83317,1.85988 1.04674,3.32516 0.17058,1.17036 0.23327,2.32824 0.13932,2.57308 -0.15323,0.39932 -0.79823,0.44515 -6.26454,0.44515 h -6.09372 v 0.73817 c 0,0.40598 0.18111,1.43348 0.40246,2.28331 0.22135,0.84984 0.72819,2.03571 1.1263,2.63528 0.42388,0.63837 1.21648,1.34384 1.91264,1.70237 0.95368,0.49116 1.51034,0.59369 2.81445,0.51841 1.25843,-0.0726 1.87129,-0.26408 2.71313,-0.84747 0.59812,-0.4145 1.33481,-1.1538 1.63708,-1.64289 0.30228,-0.48909 0.69572,-0.88926 0.87432,-0.88926 0.1786,0 0.54067,0.1579 0.8046,0.35089 0.33868,0.24765 0.42527,0.52291 0.2943,0.93557 -0.10207,0.32157 -0.80162,1.21568 -1.55458,1.9869 -0.96123,0.98455 -1.82487,1.57278 -2.89949,1.97485 -1.001,0.37452 -2.09914,0.5665 -3.1742,0.55492 -0.90405,-0.01 -2.11997,-0.16831 -2.70205,-0.3524 z m 6.2177,-12.41806 c 0,-0.19401 -0.13494,-1.02466 -0.29986,-1.84589 -0.17866,-0.8896 -0.40908,-1.42565 -0.57005,-1.32617 -0.16114,0.0996 -0.18863,0.035 -0.0681,-0.15998 0.12266,-0.19847 -0.0848,-0.62641 -0.52796,-1.08895 -0.48263,-0.50375 -1.10827,-0.81871 -1.84614,-0.92936 -0.79796,-0.11966 -1.37115,-0.0383 -2.01085,0.28527 -0.49211,0.24896 -1.16493,0.69975 -1.49515,1.00176 -0.33022,0.30202 -0.83624,1.31267 -1.12448,2.24588 -0.28824,0.93322 -0.52407,1.80328 -0.52407,1.93347 0,0.1302 1.905,0.23672 4.23333,0.23672 3.35121,0 4.23333,-0.0735 4.23333,-0.35275 z m -76.149572,12.34118 c -0.440235,-0.0887 -0.588149,-0.27675 -0.529166,-0.67275 0.05552,-0.37274 0.422497,-0.66586 1.140199,-0.91073 0.582084,-0.19859 1.207162,-0.56011 1.389063,-0.80338 0.242778,-0.32468 0.330466,-2.09991 0.32974,-6.67558 -8.99e-4,-5.66702 -0.04686,-6.30852 -0.505955,-7.06141 -0.351914,-0.57712 -0.812729,-0.90174 -1.520366,-1.07102 -0.876574,-0.2097 -1.002818,-0.33161 -0.923381,-0.89167 0.05061,-0.35682 0.115323,-0.67379 0.143809,-0.70438 0.02849,-0.0306 1.495234,-0.13719 3.259441,-0.23689 l 3.20765,-0.18128 0.181954,1.21335 0.181953,1.21335 1.318021,-1.04184 c 0.73462,-0.58068 1.96805,-1.2308 2.78656,-1.46875 1.20513,-0.35034 1.73027,-0.37435 2.92774,-0.13386 0.80257,0.16117 1.84113,0.58434 2.30791,0.94038 0.46678,0.35603 1.04545,1.06197 1.28594,1.56877 0.24049,0.50679 0.5549,1.54179 0.69869,2.3 0.1438,0.75821 0.26144,3.80035 0.26144,6.76031 0,5.29461 0.01,5.38776 0.59532,5.75325 0.32742,0.20432 0.92273,0.44746 1.32291,0.5403 0.54156,0.12565 0.72761,0.32913 0.72761,0.79578 0,0.51393 -0.17716,0.66021 -0.98253,0.8113 -0.54039,0.10138 -2.41562,0.1496 -4.16719,0.10716 -1.75156,-0.0424 -3.459,-0.12725 -3.79431,-0.18846 -0.48072,-0.0878 -0.59262,-0.25806 -0.52916,-0.80532 0.0451,-0.38921 0.25478,-0.70537 0.47735,-0.71987 0.21828,-0.0142 0.66171,-0.044 0.98539,-0.0661 0.35996,-0.0247 0.74529,-0.34346 0.99219,-0.82091 0.3211,-0.62094 0.40337,-1.8251 0.4022,-5.88698 -8.2e-4,-2.83002 -0.12847,-5.56374 -0.28636,-6.13235 -0.15668,-0.56429 -0.56732,-1.30843 -0.91254,-1.65365 -0.49421,-0.49421 -0.89742,-0.62338 -1.89646,-0.60753 -0.69784,0.0111 -1.6561,0.16062 -2.12947,0.33233 -0.47338,0.1717 -1.21752,0.64899 -1.65365,1.06063 l -0.792967,0.74843 v 6.06727 6.06727 l 0.859897,0.37328 c 0.47294,0.2053 1.07623,0.44082 1.34064,0.52338 0.34297,0.10709 0.4567,0.35904 0.39687,0.87921 l -0.0839,0.72911 -4.101042,0.0365 c -2.255573,0.0201 -4.376006,-0.0189 -4.712075,-0.0866 z m 82.698012,0.003 c -0.82248,-0.0968 -0.99219,-0.21996 -0.99219,-0.72032 0,-0.4719 0.22409,-0.67075 1.02695,-0.91129 0.56482,-0.16922 1.1899,-0.5042 1.38906,-0.74439 0.29428,-0.3549 0.36212,-2.60858 0.36212,-12.03015 0,-11.52589 -0.003,-11.59676 -0.57133,-12.16459 -0.31423,-0.31413 -1.14767,-0.71686 -1.85208,-0.89495 -0.95685,-0.24191 -1.30139,-0.46156 -1.36233,-0.86851 -0.054,-0.36083 0.10174,-0.60288 0.46145,-0.71705 0.29866,-0.0948 1.8309,-0.25408 3.40498,-0.35398 1.57407,-0.0999 3.06306,-0.14289 3.30886,-0.0956 0.41242,0.0794 0.44691,1.1125 0.44691,13.38712 0,12.51294 0.0284,13.3268 0.4802,13.73563 0.26411,0.23901 0.85942,0.56677 1.32292,0.72834 0.63182,0.22026 0.84271,0.45283 0.84271,0.92935 0,0.62578 -0.0382,0.63558 -2.47661,0.63558 -1.36214,0 -2.99925,0.0453 -3.63802,0.10074 -0.63878,0.0554 -1.60789,0.0482 -2.1536,-0.016 z M 60.373768,126.41615 c -0.354116,-0.78127 -0.379419,-1.05346 -0.12127,-1.30455 0.179416,-0.1745 1.278711,-0.69542 2.442878,-1.15759 1.164166,-0.46217 2.950104,-1.11285 3.96875,-1.44597 1.018645,-0.33312 2.68552,-0.85026 3.704166,-1.1492 1.018646,-0.29894 2.985671,-0.84305 4.371166,-1.20912 1.385496,-0.36608 3.409558,-0.85539 4.497917,-1.08735 1.088358,-0.23196 3.586177,-0.71262 5.550708,-1.06813 1.964532,-0.35552 6.19125,-0.94137 9.392708,-1.30191 3.201459,-0.36053 8.708099,-0.78001 12.236979,-0.93217 4.4524,-0.19198 8.3799,-0.19244 12.8323,-0.002 3.52888,0.15133 8.14255,0.4608 10.2526,0.6877 2.11005,0.2269 5.38427,0.63246 7.27604,0.90126 1.89177,0.26879 5.64664,0.96614 8.34415,1.54968 2.69752,0.58353 5.79314,1.30057 6.87917,1.59341 1.08603,0.29284 3.07823,0.85444 4.42712,1.248 1.34889,0.39355 2.40211,0.76597 2.34049,0.82759 -0.0616,0.0616 -0.92713,-0.0802 -1.92336,-0.31515 -0.99623,-0.23495 -2.28757,-0.54377 -2.86965,-0.68627 -0.58209,-0.14249 -2.84167,-0.55699 -5.0213,-0.9211 -2.17963,-0.36412 -5.98963,-0.85574 -8.46667,-1.0925 -2.96237,-0.28315 -7.35602,-0.43933 -12.83807,-0.45636 -4.58391,-0.0142 -12.02532,0.12794 -16.53646,0.31594 -4.51115,0.18801 -10.66515,0.51505 -13.675559,0.72677 -3.010409,0.21172 -7.35619,0.62427 -9.657292,0.91678 -2.301101,0.29252 -5.195852,0.71433 -6.432779,0.93736 -1.236927,0.22304 -3.380052,0.64492 -4.7625,0.93752 -1.382448,0.2926 -3.466041,0.76898 -4.630208,1.05862 -1.164166,0.28965 -3.307291,0.88751 -4.7625,1.32859 -1.455208,0.44108 -3.456316,1.09108 -4.446907,1.44444 -0.990591,0.35336 -1.828988,0.64247 -1.863105,0.64247 -0.03412,0 -0.263397,-0.44426 -0.509512,-0.98725 z"
       id="path1"
       sodipodi:nodetypes="cssssssssssssssssssssssssssssssssscsssssssscccssssssscssssssssscsssscssccssssssssssscssscsssscsssssssssssssscssssscsscscssssssssssccssssssscsccsssssssscsssssssssccsssscsssssssssssscssssssscssssssssssssssssssssssssssscssscscsssssscsscsssscccssscssscssssssscscssssssscscsssscccsssssssssssssssscsssscssssssscsssssssscssssscssssssssscccssssssscsssccsscsssscsscccssscccccsssscsssscsssssccccssssssssscsssssssssscssssssssscc" /></g></svg>
